<?xml version="1.0" standalone="no"?>
<!DOCTYPE svg PUBLIC "-//W3C//DTD SVG 20010904//EN"
 "http://www.w3.org/TR/2001/REC-SVG-20010904/DTD/svg10.dtd">
<svg version="1.0" xmlns="http://www.w3.org/2000/svg"
 width="300.000000pt" height="300.000000pt" viewBox="0 0 300.000000 300.000000"
 preserveAspectRatio="xMidYMid meet">
<metadata>
Created by potrace 1.13, written by Peter Selinger 2001-2015
</metadata>
<g transform="translate(0.000000,300.000000) scale(0.100000,-0.100000)"
fill="#000000" stroke="none">
<path d="M2385 2587 c164 -122 263 -280 329 -529 80 -304 67 -681 -30 -926
-46 -115 -12 -82 64 60 49 93 91 209 122 338 33 137 33 385 1 515 -61 245
-205 428 -416 530 -82 39 -115 45 -70 12z"/>
<path d="M1745 2519 c-26 -23 -40 -48 -56 -100 -19 -62 -29 -78 -96 -144 -91
-91 -206 -184 -338 -274 -159 -107 -191 -124 -473 -241 -84 -35 -110 -51 -145
-90 -24 -26 -49 -68 -57 -91 -15 -49 -16 -203 -1 -268 5 -23 5 -39 1 -36 -18
11 -32 116 -28 201 3 65 10 102 26 135 12 25 22 48 22 51 0 15 -168 -86 -196
-118 -49 -54 -67 -152 -43 -236 12 -47 70 -105 118 -118 34 -10 195 -30 271
-35 56 -3 57 -3 95 -37 49 -42 78 -104 105 -218 43 -185 67 -253 102 -287 40
-39 104 -63 168 -63 63 0 81 19 56 61 -14 24 -16 36 -7 61 15 44 14 49 -18 99
-18 26 -29 57 -29 75 1 19 -11 46 -31 74 -17 23 -31 53 -31 66 0 13 -9 46 -20
74 -25 63 -26 123 -3 146 15 14 31 16 123 10 122 -8 396 -50 490 -76 86 -23
163 -57 223 -97 66 -44 90 -49 129 -26 138 80 158 563 43 999 -111 416 -270
617 -400 503z m-99 -451 c0 -84 6 -191 13 -237 31 -211 99 -448 166 -581 20
-40 34 -74 31 -77 -2 -2 -14 1 -26 7 -95 51 -319 97 -515 106 -151 7 -198 23
-238 82 -42 60 -58 109 -64 196 -11 162 26 213 270 368 179 114 290 198 334
252 15 20 28 36 28 36 0 0 1 -69 1 -152z m157 -186 c53 -98 72 -185 72 -332 0
-137 -10 -230 -24 -230 -10 0 -65 188 -86 295 -13 71 -54 345 -55 369 0 19 68
-57 93 -102z m-1310 -390 c-5 -43 8 -132 33 -232 5 -19 4 -22 -5 -14 -38 35
-61 294 -26 294 2 0 1 -22 -2 -48z m-66 -59 c-1 -50 5 -94 16 -123 22 -61 12
-64 -14 -4 -26 59 -29 204 -5 204 2 0 3 -35 3 -77z"/>
<path d="M2230 2400 c0 -5 13 -16 28 -24 46 -24 135 -127 174 -202 82 -157
121 -332 121 -549 0 -162 -12 -245 -54 -369 -16 -49 -28 -91 -25 -93 10 -11
84 125 124 227 64 164 82 407 42 566 -52 208 -193 371 -383 443 -16 6 -27 7
-27 1z"/>
<path d="M2120 2213 c52 -35 119 -115 153 -185 58 -121 79 -213 85 -379 5
-160 -4 -237 -42 -349 -13 -38 -21 -70 -18 -70 16 1 85 136 113 222 26 77 32
114 36 216 7 142 -10 230 -60 327 -41 78 -136 173 -209 208 -62 30 -98 36 -58
10z"/>
</g>
</svg>
